<svg xmlns="http://www.w3.org/2000/svg" viewBox="0 0 96 96" fill="none">
  <title>Prajna blue lotus</title>
  <rect x=".5" y=".5" width="95" height="95" fill="#f8fafc" stroke="#dce5ec"/>
  <g transform="translate(0 12)" stroke="#376b94" stroke-width="1.7" stroke-linecap="round" stroke-linejoin="round">
    <path d="M48 57C30 48 24 34 27 18c14 5 23 18 21 39Z" fill="#dceaf5"/>
    <path d="M48 57c18-9 24-23 21-39-14 5-23 18-21 39Z" fill="#dceaf5"/>
    <path d="M48 57C37 48 34 28 48 9c14 19 11 39 0 48Z" fill="#adcce3"/>
    <path d="M48 57C26 59 12 47 10 30c18 0 32 9 38 27Z" fill="#eaf2f8"/>
    <path d="M48 57c22 2 36-10 38-27-18 0-32 9-38 27Z" fill="#eaf2f8"/>
    <path d="M48 57C32 63 19 60 12 49c15-6 27-4 36 8Z" fill="#c5dcec"/>
    <path d="M48 57c16 6 29 3 36-8-15-6-27-4-36 8Z" fill="#c5dcec"/>
    <path d="M48 56V25M37 66c7 2 15 2 22 0"/>
  </g>
</svg>
